<svg viewBox="0 0 200 200" fill="none" xmlns="http://www.w3.org/2000/svg">
  <g stroke="#C9A962" stroke-width="3.2" stroke-linejoin="round" stroke-linecap="round">

    <!-- 外側の六角形（フラットトップ：上下が平らな辺） -->
    <polygon points="58,27 142,27 183,100 142,173 58,173 17,100"/>

    <!-- 中央の縦の背骨ライン -->
    <line x1="100" y1="27" x2="100" y2="152"/>

    <!-- ===== 上部クリスタル（4本線が中心上から広がる） ===== -->
    <!-- 左・外側 -->
    <line x1="100" y1="27" x2="58" y2="67"/>
    <!-- 左・内側 -->
    <line x1="100" y1="27" x2="72" y2="67"/>
    <!-- 右・外側 -->
    <line x1="100" y1="27" x2="142" y2="67"/>
    <!-- 右・内側 -->
    <line x1="100" y1="27" x2="128" y2="67"/>

    <!-- ===== 左の柱 ===== -->
    <!-- 上頂点から柱上端への短い縦線 -->
    <line x1="58" y1="27" x2="58" y2="67"/>
    <!-- 外側縦線 -->
    <line x1="58" y1="67" x2="58" y2="130"/>
    <!-- 内側縦線 -->
    <line x1="72" y1="67" x2="72" y2="130"/>
    <!-- 横バー -->
    <line x1="58" y1="113" x2="72" y2="113"/>
    <!-- 柱下端から下頂点への短い縦線 -->
    <line x1="58" y1="130" x2="58" y2="173"/>

    <!-- 左の六角形中点（17,100）から柱への接続 -->
    <line x1="17" y1="100" x2="58" y2="67"/>
    <line x1="17" y1="100" x2="58" y2="130"/>

    <!-- ===== 右の柱（左の鏡像） ===== -->
    <line x1="142" y1="27" x2="142" y2="67"/>
    <line x1="142" y1="67" x2="142" y2="130"/>
    <line x1="128" y1="67" x2="128" y2="130"/>
    <line x1="142" y1="113" x2="128" y2="113"/>
    <line x1="142" y1="130" x2="142" y2="173"/>

    <!-- 右の六角形中点（183,100）から柱への接続 -->
    <line x1="183" y1="100" x2="142" y2="67"/>
    <line x1="183" y1="100" x2="142" y2="130"/>

    <!-- ===== 下部：柱底から本の背骨底へ集まる斜め線 ===== -->
    <!-- 左・外側 -->
    <line x1="58" y1="130" x2="100" y2="152"/>
    <!-- 左・内側 -->
    <line x1="72" y1="130" x2="100" y2="152"/>
    <!-- 右・外側 -->
    <line x1="142" y1="130" x2="100" y2="152"/>
    <!-- 右・内側 -->
    <line x1="128" y1="130" x2="100" y2="152"/>

    <!-- ===== 下部ダイヤモンド/スター ===== -->
    <line x1="100" y1="152" x2="74" y2="164"/>
    <line x1="74"  y1="164" x2="100" y2="173"/>
    <line x1="100" y1="152" x2="126" y2="164"/>
    <line x1="126" y1="164" x2="100" y2="173"/>

  </g>
</svg>
